<svg xmlns="http://www.w3.org/2000/svg" width="1272.9599999999998" height="316"><path d="M67.32 150.68L67.32 150.68Q63.48 150.68 63.48 148.28L63.48 148.28Q63.48 147.56 63.60 146.36L63.60 146.36Q64.44 132.80 64.68 119.24L64.68 119.24L64.68 103.52L38.88 103.52L38.88 105.92Q39 107 39 108.32L39 108.32Q39.12 109.52 39.24 110L39.24 110Q39 111.68 35.04 113.48L35.04 113.48Q30.96 115.40 26.76 115.40L26.76 115.40Q23.64 115.40 23.64 113L23.64 113Q24.36 103.28 24.60 93.32L24.60 93.32L24.60 82.28Q24.60 67.16 23.04 57.68L23.04 57.68L39.96 64.52L64.68 64.52L64.68 62.24Q64.68 47.12 63.12 37.64L63.12 37.64Q72.72 39.68 77.28 41L77.28 41Q81.24 42.08 81.84 43.04L81.84 43.04Q82.44 43.64 81.12 44.48L81.12 44.48L79.08 45.92L79.08 64.52L103.92 64.52L106.92 60.80Q107.28 60.44 107.88 59.60L107.88 59.60Q110.04 57.08 110.76 57.08L110.76 57.08Q111.96 57.08 118.02 61.82Q124.08 66.56 124.08 67.88L124.08 67.88Q122.28 69.92 119.40 70.52L119.40 70.52L119.40 83.72Q119.76 100.16 120.24 109.40L120.24 109.40Q119.52 110.60 115.20 112.04L115.20 112.04Q110.76 113.60 107.40 113.60L107.40 113.60Q104.52 113.60 104.52 111.20L104.52 111.20Q104.64 110.36 104.76 108.80L104.76 108.80Q104.88 107.72 105 106.88L105 106.88L105 103.52L79.08 103.52L79.08 117.56Q79.32 132.08 80.04 144.92L80.04 144.92Q79.20 146.72 75.36 148.64L75.36 148.64Q71.16 150.68 67.32 150.68ZM38.88 68L38.88 100.04L64.68 100.04L64.68 68L38.88 68ZM79.08 68L79.08 100.04L105 100.04L105 68L79.08 68ZM233.64 150.56L233.64 150.56Q207.84 140.84 191.88 123.56L191.88 123.56Q171.12 142.04 138.60 150.32L138.60 150.32L138 149.12Q167.40 136.88 185.16 115.52L185.16 115.52Q173.52 99.56 167.88 77.72L167.88 77.72Q162.48 90.92 159.96 95.84L159.96 95.84Q161.52 98.12 159.48 100.16L159.48 100.16L149.76 88.40Q158.52 82.16 166.44 74.24L166.44 74.24L167.28 66.68L173.28 68.48L169.08 74.84Q175.32 94.04 190.56 108.44L190.56 108.44Q203.88 89.36 207.96 65L207.96 65L158.76 65Q150.24 65.12 140.76 66.68L140.76 66.68L137.76 60.68Q144.36 61.40 153.72 61.64L153.72 61.64L184.92 61.64Q184.92 47.36 183.48 37.88L183.48 37.88Q197.04 40.52 200.40 41.96L200.40 41.96Q202.92 43.04 201 44.36L201 44.36L198.96 45.80L198.96 61.64L222.96 61.64L226.68 56Q227.16 55.40 228 54.08L228 54.08Q230.64 50.24 231.36 50.24L231.36 50.24Q232.56 50.24 239.04 56Q245.52 61.76 245.52 63.08L245.52 63.08Q245.16 65 242.28 65L242.28 65L224.76 65Q217.44 96.20 199.56 115.88L199.56 115.88Q219.12 129.92 247.32 136.88L247.32 136.88L247.08 138.32Q237 139.76 233.64 150.56ZM340.44 150.92L340.44 150.92Q339.60 144.20 336.84 141.92L336.84 141.92Q332.64 138.44 324.36 137.24L324.36 137.24L324.36 135.56Q333.72 136.04 343.08 136.64L343.08 136.64Q345.96 136.64 345.96 133.76L345.96 133.76L345.96 51.32L333.60 51.32Q333.12 75.92 331.44 87.32L331.44 87.32Q339.60 96.20 341.76 104.84L341.76 104.84Q343.56 112.28 340.50 115.76Q337.44 119.24 332.52 115.40L332.52 115.40Q331.08 109.64 328.20 103.04L328.20 103.04Q322.44 123.20 307.08 136.16L307.08 136.16L305.40 134.36Q317.64 116.48 320.04 88.16L320.04 88.16Q315.12 80.24 307.44 71L307.44 71L308.76 70.16Q315.36 73.76 320.76 77.72L320.76 77.72Q321.12 69.20 321.12 51.32L321.12 51.32L305.88 51.32Q305.40 75.08 303 88.76L303 88.76Q309.84 97.04 311.40 104.84L311.40 104.84Q312.72 111.68 309.72 114.62Q306.72 117.56 302.16 113.96L302.16 113.96Q301.44 109.64 299.16 104.36L299.16 104.36Q293.28 122.96 280.44 135.56L280.44 135.56L278.88 133.88Q289.08 116.24 292.20 89.96L292.20 89.96Q285.84 79.40 279.36 71.72L279.36 71.72L280.92 70.88Q287.76 74.84 293.16 79.16L293.16 79.16Q293.64 66.56 293.64 51.32L293.64 51.32L277.68 51.32L277.68 116.84Q277.92 131.72 278.64 145.04L278.64 145.04Q277.80 146.96 274.56 148.88L274.56 148.88Q270.96 150.80 267.12 150.80L267.12 150.80Q265.44 150.80 264.42 150.08Q263.40 149.36 263.40 148.40L263.40 148.40Q264.48 132.92 264.72 117.20L264.72 117.20L264.72 65.84Q264.72 50.72 263.16 41.24L263.16 41.24L278.76 47.84L344.88 47.84L347.64 44.24Q348 43.76 348.84 42.80L348.84 42.80Q350.64 40.52 351.36 40.52L351.36 40.52Q352.56 40.52 358.20 45.14Q363.84 49.76 363.84 51.08L363.84 51.08Q362.16 53 359.16 53.60L359.16 53.60L359.16 134.96Q359.16 142.64 355.92 145.88L355.92 145.88Q351.84 149.96 340.44 150.92ZM419.52 150.92L419.52 150.92Q418.68 143.36 416.16 140.96L416.16 140.96Q412.32 137.60 403.80 135.92L403.80 135.92L403.80 134.36Q413.04 134.84 422.16 135.44L422.16 135.44Q424.80 135.44 424.80 133.16L424.80 133.16L424.80 107.84L399.24 107.84Q390.72 107.96 381.24 109.52L381.24 109.52L378.12 103.52Q384.72 104.24 394.08 104.48L394.08 104.48L424.80 104.48Q424.80 94.88 423.84 89.24L423.84 89.24L436.32 90.80Q442.32 84.80 446.76 77.96L446.76 77.96L419.88 77.96Q411.36 78.08 401.88 79.64L401.88 79.64L398.64 73.52Q405.24 74.24 414.60 74.48L414.60 74.48L447.60 74.48L450.96 70.76Q451.32 70.40 451.92 69.80L451.92 69.80Q454.44 66.92 455.28 66.92L455.28 66.92Q456.48 66.92 462 71.96Q467.52 77 467.52 78.32L467.52 78.32Q466.32 79.52 462.84 79.88L462.84 79.88Q451.56 87.08 441.96 91.28L441.96 91.28L442.80 91.40Q442.44 94.04 438.84 94.52L438.84 94.52L438.84 104.48L465.12 104.48L468.48 99.56Q468.96 98.96 469.80 97.76L469.80 97.76Q471.96 94.64 472.68 94.64L472.68 94.64Q473.88 94.64 479.70 99.62Q485.52 104.60 485.52 105.92L485.52 105.92Q485.16 107.84 482.40 107.84L482.40 107.84L438.84 107.84L438.84 134Q438.84 142.16 435.48 145.52L435.48 145.52Q431.40 149.84 419.52 150.92ZM392.04 76.76Q389.40 79.28 385.62 78.56Q381.84 77.84 380.40 74.36L380.40 74.36Q379.20 71.24 380.64 68.36L380.64 68.36Q381.84 65.84 384.72 64.04L384.72 64.04Q387.84 61.88 390.12 57.44L390.12 57.44Q392.76 52.52 392.52 47.72L392.52 47.72L394.08 47.72Q395.76 52.04 396.60 56.96L396.60 56.96L424.80 56.96Q424.80 44.84 423.60 37.28L423.60 37.28Q436.92 39.92 440.40 41.36L440.40 41.36Q442.80 42.44 440.88 43.76L440.88 43.76L438.84 45.20L438.84 56.96L466.56 56.96L469.80 53.36Q470.16 53 470.88 52.16L470.88 52.16Q473.16 49.64 473.88 49.64L473.88 49.64Q474.96 49.64 480.30 55.04Q485.64 60.44 485.64 61.76L485.64 61.76Q484.56 62.84 481.08 63.20L481.08 63.20Q473.64 68.84 463.44 73.16L463.44 73.16L462.36 72.32Q464.04 68.60 466.80 60.44L466.80 60.44L397.08 60.44Q397.92 71.60 392.04 76.76L392.04 76.76ZM565.32 150.20L565.32 150.20Q563.40 150.20 562.38 149.48Q561.36 148.76 561.36 147.80L561.36 147.80Q562.44 132.32 562.68 116.60L562.68 116.60L562.68 85.76L553.92 85.76Q546.48 85.88 538.08 87.44L538.08 87.44L535.20 81.32Q541.80 82.04 551.16 82.28L551.16 82.28L562.68 82.28L562.68 62.72Q562.68 47.60 561.12 38.12L561.12 38.12Q570.48 40.16 574.92 41.48L574.92 41.48Q578.76 42.68 579.48 43.64L579.48 43.64Q579.96 44.24 578.64 45.08L578.64 45.08L576.48 46.40L576.48 82.28L586.32 82.28L589.80 77.12Q590.16 76.64 590.88 75.56L590.88 75.56Q593.40 71.96 594.12 71.96L594.12 71.96Q595.32 71.96 601.32 77.24Q607.32 82.52 607.32 83.84L607.32 83.84Q606.84 85.76 603.96 85.76L603.96 85.76L576.48 85.76L576.48 116.36Q576.72 131.24 577.44 144.56L577.44 144.56Q576.60 146.36 573 148.16L573 148.16Q569.04 150.20 565.32 150.20ZM519.24 145.52L519.24 145.52L509.76 130.64Q513.24 128.48 514.32 127.22Q515.40 125.96 515.40 123.92L515.40 123.92L515.40 74.72L510 74.72Q505.32 74.84 500.40 76.40L500.40 76.40L497.28 70.28Q502.44 71 509.76 71.24L509.76 71.24L515.52 71.24L518.28 68.12Q518.64 67.76 519.48 66.92L519.48 66.92Q521.28 64.88 522 64.88L522 64.88Q523.20 64.88 528 69.08Q532.80 73.28 532.80 74.60L532.80 74.60Q531.60 76.28 528.36 76.88L528.36 76.88L528.36 123.68Q532.56 121.88 541.92 117.56L541.92 117.56Q545.40 116 547.20 115.16L547.20 115.16L547.68 116.36Q536.64 128.60 522.84 140.60L522.84 140.60Q521.40 144.08 519.24 145.52ZM531.36 62.24Q527.76 64.76 522.96 61.88L522.96 61.88Q521.16 56.72 516.84 50.12L516.84 50.12Q513 44.48 508.56 39.92L508.56 39.92L509.64 39.08Q521.64 40.52 528.36 45.56L528.36 45.56Q533.76 49.64 534.36 55.04L534.36 55.04Q534.84 59.84 531.36 62.24L531.36 62.24ZM680.76 148.04Q677.04 151.52 670.44 149.12L670.44 149.12Q664.92 147.08 660.60 142.40L660.60 142.40Q653.64 134.96 648.36 126.20L648.36 126.20Q635.76 139.16 617.88 147.32L617.88 147.32L616.92 145.52Q633.36 134 644.16 117.80L644.16 117.80Q636.60 101.12 633.24 77.36L633.24 77.36L618.48 79.28L617.16 76.04L633 74Q631.08 58.64 631.08 38L631.08 38Q643.08 38.84 646.20 39.80L646.20 39.80Q648.36 40.52 646.56 41.84L646.56 41.84L644.52 43.28Q644.28 59.48 645.60 72.32L645.60 72.32L663.24 70.04L666 65.12Q666.24 64.64 666.84 63.68L666.84 63.68Q668.88 60.20 669.60 60.20L669.60 60.20Q670.80 60.20 676.44 63.92L676.44 63.92Q682.08 67.76 682.08 68.96L682.08 68.96Q682.08 71.12 679.32 71.36L679.32 71.36L645.96 75.68Q647.88 91.64 652.20 103.28L652.20 103.28Q652.44 102.80 652.80 101.84L652.80 101.84Q653.76 100.04 654.12 99.08L654.12 99.08Q656.40 93.68 658.20 86.90Q660 80.12 660.48 75.08L660.48 75.08Q672.60 79.64 675.60 81.56L675.60 81.56Q677.88 83 675.72 83.60L675.72 83.60L673.44 84.20Q666.48 102.32 657.60 115.16L657.60 115.16Q662.28 123.32 668.64 129.20L668.64 129.20Q669.96 130.64 670.80 130.64L670.80 130.64Q671.64 130.52 672.60 128.96L672.60 128.96Q675.96 123.20 679.68 114.44L679.68 114.44L681 114.68L678.12 135.08Q683.64 145.28 680.76 148.04L680.76 148.04ZM703.20 150.68L703.20 150.68Q702.36 143 700.20 140.60L700.20 140.60Q697.08 137 689.52 135.68L689.52 135.68L689.52 134.12Q697.32 134.48 705 134.96L705 134.96Q707.64 134.96 707.64 132.68L707.64 132.68L707.64 86.24L707.64 63.80Q707.64 48.68 706.08 39.20L706.08 39.20Q719.28 42.08 722.64 43.64L722.64 43.64Q725.04 44.84 723.12 46.04L723.12 46.04L720.96 47.36L720.96 133.76Q720.96 142.04 717.96 145.40L717.96 145.40Q714.12 149.72 703.20 150.68ZM687.12 123.08L687.12 123.08Q684 123.08 684 120.68L684 120.68Q684.72 109.52 684.96 98.12L684.96 98.12L684.96 85.64L684.96 72.20Q684.96 57.08 683.40 47.60L683.40 47.60Q695.88 50.36 699 51.80L699 51.80Q701.28 53 699.36 54.20L699.36 54.20L697.20 55.64L697.20 90.56Q697.44 105.44 698.16 118.76L698.16 118.76Q697.32 120.20 694.08 121.52L694.08 121.52Q690.48 123.08 687.12 123.08ZM667.44 59.60Q664.20 61.76 660.12 59.48L660.12 59.48Q659.04 55.40 655.80 50.96L655.80 50.96Q652.80 46.88 649.32 44.12L649.32 44.12L650.28 43.28Q660.12 43.28 665.52 46.76L665.52 46.76Q669.96 49.52 670.20 53.72L670.20 53.72Q670.44 57.68 667.44 59.60L667.44 59.60Z"/><path d="M75 280L32.16 280L32.16 275.80L45 274.72Q45.12 262.84 45.12 238.48L45.12 238.48L45.12 232.60Q45.12 208.12 45 196L45 196L26.40 196L21.36 215.80L14.64 215.80L15.48 190.96L91.68 190.96L92.40 215.80L85.68 215.80L80.76 196L62.16 196Q61.92 208 61.92 232.60L61.92 232.60L61.92 238.48Q61.92 262.60 62.16 274.72L62.16 274.72L75 275.80L75 280ZM132.24 280L99.60 280L99.60 276.28L108.36 275.20Q108.60 261.52 108.60 251.80L108.60 251.80L108.60 190.96L98.88 190.24L98.88 186.88L122.64 181.72L124.44 182.80L123.96 201.88L123.96 226.24Q134.76 213.88 147 213.88L147 213.88Q165.36 213.88 165.36 237.40L165.36 237.40L165.36 251.80Q165.36 261.64 165.60 275.32L165.60 275.32L173.76 276.28L173.76 280L140.88 280L140.88 276.28L149.52 275.20Q149.76 261.76 149.76 251.80L149.76 251.80L149.76 236.44Q149.76 228.88 147.24 225.52L147.24 225.52Q144.96 222.40 140.04 222.40L140.04 222.40Q132.72 222.40 124.20 230.20L124.20 230.20L124.20 251.80Q124.20 265 124.56 275.32L124.56 275.32L132.24 276.28L132.24 280ZM214.68 281.92L214.68 281.92Q200.16 281.92 191.40 273.04L191.40 273.04Q182.16 263.80 182.16 247.84L182.16 247.84Q182.16 232.36 192.24 222.76L192.24 222.76Q201.48 213.88 214.80 213.88L214.80 213.88Q226.92 213.88 234.12 221.32L234.12 221.32Q241.20 228.64 241.20 240.16L241.20 240.16Q241.20 244.72 240.36 247.60L240.36 247.60L198.84 247.60Q199.20 260.80 205.32 267.64L205.32 267.64Q210.84 274 220.08 274L220.08 274Q231.24 274 238.08 264.76L238.08 264.76L240.48 266.44Q236.88 273.88 230.22 277.90Q223.56 281.92 214.68 281.92ZM198.84 243.16L198.84 243.16L219.36 243.16Q223.32 243.16 224.88 241L224.88 241Q226.20 239.08 226.20 234.28L226.20 234.28Q226.20 227.08 222.72 222.70Q219.24 218.32 213.72 218.32L213.72 218.32Q207.60 218.32 203.76 224.20L203.76 224.20Q199.32 230.68 198.84 243.16ZM323.04 280L281.52 280L281.52 275.80L292.92 274.72Q293.16 262.84 293.16 238.48L293.16 238.48L293.16 232.60Q293.16 208.48 292.92 196.36L292.92 196.36L281.52 195.28L281.52 190.96L317.28 190.96Q353.28 190.96 353.28 217.36L353.28 217.36Q353.28 229.48 344.76 236.44L344.76 236.44Q335.04 244.36 315.48 244.36L315.48 244.36L309.84 244.36Q309.84 264.04 310.20 274.60L310.20 274.60L323.04 275.80L323.04 280ZM309.84 232.60L309.84 239.68L315.72 239.68Q326.64 239.68 332.16 233.44L332.16 233.44Q337.32 227.68 337.32 217.36L337.32 217.36Q337.32 195.64 316.56 195.64L316.56 195.64L310.20 195.64Q309.84 207.76 309.84 232.60L309.84 232.60ZM396.84 280L360.72 280L360.72 276.28L369.48 275.20Q369.72 261.52 369.72 251.80L369.72 251.80L369.72 243.16Q369.72 232.96 369.24 225.28L369.24 225.28L359.76 224.32L359.76 221.32L382.80 214L384.48 215.08L385.56 231.76Q388.32 223.36 393.84 218.44L393.84 218.44Q399 213.88 404.64 213.88L404.64 213.88Q413.52 213.88 415.44 221.56L415.44 221.56Q414.84 230.68 407.16 230.68L407.16 230.68Q404.40 230.68 402.12 229.12L402.12 229.12Q400.20 227.92 397.68 224.92L397.68 224.92L396.36 223.48Q389.16 229.12 385.56 241.12L385.56 241.12L385.56 251.80Q385.56 261.16 385.80 274.84L385.80 274.84L396.84 276.28L396.84 280ZM451.02 281.92Q436.80 281.92 427.92 272.92L427.92 272.92Q418.68 263.56 418.68 247.72L418.68 247.72Q418.68 232.12 428.28 222.76L428.28 222.76Q437.40 213.88 451.08 213.88L451.08 213.88Q464.76 213.88 473.76 222.64L473.76 222.64Q483.48 232.12 483.48 247.72L483.48 247.72Q483.48 263.56 474.12 272.92L474.12 272.92Q465.24 281.92 451.02 281.92ZM451.08 277.48L451.08 277.48Q458.52 277.48 462.48 270.16L462.48 270.16Q466.56 262.60 466.56 247.90Q466.56 233.20 462.48 225.64L462.48 225.64Q458.52 218.32 451.08 218.32L451.08 218.32Q435.60 218.32 435.60 247.84L435.60 247.84Q435.60 277.48 451.08 277.48ZM490.20 312.52L490.20 312.52Q477.84 312.52 475.20 305.08L475.20 305.08Q475.68 301.60 478.32 299.56L478.32 299.56Q480.72 297.52 484.08 297.52L484.08 297.52Q490.68 297.52 494.52 303.40L494.52 303.40L497.16 307.12Q498.72 305.56 499.56 303.28L499.56 303.28Q501.00 299.56 501.36 291.16L501.36 291.16Q501.60 285.76 501.60 272.08L501.60 272.08Q501.60 269.20 501.60 267.76L501.60 267.76L501.60 243.64Q501.60 236.44 501.12 226.24L501.12 226.24Q501.12 225.40 501.12 225.04L501.12 225.04L491.52 224.08L491.52 220.84L515.88 214L517.56 215.08L517.08 233.80L517.08 269.32Q517.08 284.44 515.40 291.64L515.40 291.64Q513.72 298.96 509.04 304.12L509.04 304.12Q501.24 312.52 490.20 312.52ZM509.04 200.56Q505.08 200.56 502.38 198.04Q499.68 195.52 499.68 191.68L499.68 191.68Q499.68 187.72 502.38 185.20Q505.08 182.68 509.04 182.68L509.04 182.68Q513.12 182.68 515.76 185.20Q518.40 187.72 518.40 191.68L518.40 191.68Q518.40 195.52 515.70 198.04Q513.00 200.56 509.04 200.56ZM565.44 281.92L565.44 281.92Q550.92 281.92 542.16 273.04L542.16 273.04Q532.92 263.80 532.92 247.84L532.92 247.84Q532.92 232.36 543.00 222.76L543.00 222.76Q552.24 213.88 565.56 213.88L565.56 213.88Q577.68 213.88 584.88 221.32L584.88 221.32Q591.96 228.64 591.96 240.16L591.96 240.16Q591.96 244.72 591.12 247.60L591.12 247.60L549.60 247.60Q549.96 260.80 556.08 267.64L556.08 267.64Q561.60 274 570.84 274L570.84 274Q582.00 274 588.84 264.76L588.84 264.76L591.24 266.44Q587.64 273.88 580.98 277.90Q574.32 281.92 565.44 281.92ZM549.60 243.16L549.60 243.16L570.12 243.16Q574.08 243.16 575.64 241L575.64 241Q576.96 239.08 576.96 234.28L576.96 234.28Q576.96 227.08 573.48 222.70Q570.00 218.32 564.48 218.32L564.48 218.32Q558.36 218.32 554.52 224.20L554.52 224.20Q550.08 230.68 549.60 243.16ZM633.48 281.92L633.48 281.92Q619.56 281.92 610.68 273.04L610.68 273.04Q601.56 263.68 601.56 248.02Q601.56 232.36 611.64 222.88L611.64 222.88Q621.24 213.88 635.64 213.88L635.64 213.88Q645.00 213.88 651.72 219.04L651.72 219.04Q658.32 224.08 659.64 231.88L659.64 231.88Q658.08 237.52 652.68 237.52L652.68 237.52Q645.00 237.52 644.04 228.28L644.04 228.28L642.24 218.92Q640.32 218.32 637.56 218.32L637.56 218.32Q628.80 218.32 623.52 225.76L623.52 225.76Q618.12 233.32 618.12 246.52L618.12 246.52Q618.12 259.36 624.12 266.80L624.12 266.80Q630.00 274 639.84 274L639.84 274Q650.40 274 657.12 265L657.12 265L659.64 266.32Q651.96 281.92 633.48 281.92ZM692.64 281.92L692.64 281.92Q675.48 281.92 675.48 264.28L675.48 264.28Q675.48 262.48 675.48 259L675.48 259Q675.60 254.80 675.60 252.28L675.60 252.28L675.60 220.84L665.28 220.84L665.28 216.88L676.44 215.68L681.60 196.84L691.92 196.84L691.56 215.80L707.40 215.80L707.40 220.84L691.44 220.84L691.44 265.24Q691.44 274.72 699.24 274.72L699.24 274.72Q702.96 274.72 707.76 271.12L707.76 271.12L709.92 273.40Q704.40 281.92 692.64 281.92ZM787.08 280L745.56 280L745.56 275.80L756.96 274.72Q757.20 262.84 757.20 238.48L757.20 238.48L757.20 232.60Q757.20 208.48 756.96 196.36L756.96 196.36L745.56 195.28L745.56 190.96L813.24 190.96L813.36 214.48L806.88 214.48L802.32 196L774.24 196Q773.88 207.76 773.88 232.36L773.88 232.36L792.24 232.36L794.04 219.28L799.68 219.28L799.68 250.48L794.04 250.48L792.24 236.92L773.88 236.92Q773.88 262.60 774.24 274.60L774.24 274.60L787.08 275.80L787.08 280ZM848.34 281.92Q834.12 281.92 825.24 272.92L825.24 272.92Q816.00 263.56 816.00 247.72L816.00 247.72Q816.00 232.12 825.60 222.76L825.60 222.76Q834.72 213.88 848.40 213.88L848.40 213.88Q862.08 213.88 871.08 222.64L871.08 222.64Q880.80 232.12 880.80 247.72L880.80 247.72Q880.80 263.56 871.44 272.92L871.44 272.92Q862.56 281.92 848.34 281.92ZM848.40 277.48L848.40 277.48Q855.84 277.48 859.80 270.16L859.80 270.16Q863.88 262.60 863.88 247.90Q863.88 233.20 859.80 225.64L859.80 225.64Q855.84 218.32 848.40 218.32L848.40 218.32Q832.92 218.32 832.92 247.84L832.92 247.84Q832.92 277.48 848.40 277.48ZM926.16 280L890.04 280L890.04 276.28L898.80 275.20Q899.04 261.52 899.04 251.80L899.04 251.80L899.04 243.16Q899.04 232.96 898.56 225.28L898.56 225.28L889.08 224.32L889.08 221.32L912.12 214L913.80 215.08L914.88 231.76Q917.64 223.36 923.16 218.44L923.16 218.44Q928.32 213.88 933.96 213.88L933.96 213.88Q942.84 213.88 944.76 221.56L944.76 221.56Q944.16 230.68 936.48 230.68L936.48 230.68Q933.72 230.68 931.44 229.12L931.44 229.12Q929.52 227.92 927.00 224.92L927.00 224.92L925.68 223.48Q918.48 229.12 914.88 241.12L914.88 241.12L914.88 251.80Q914.88 261.16 915.12 274.84L915.12 274.84L926.16 276.28L926.16 280ZM1019.16 280.48L1010.40 280.48L985.92 196.24L976.68 195.28L976.68 190.96L1014.96 190.96L1014.96 195.28L1003.32 196.48L1020.12 260.44L1039.08 196.72L1027.08 195.28L1027.08 190.96L1064.52 190.96L1064.52 195.28L1051.56 196.72L1070.28 260.92L1086.96 196.84L1075.32 195.28L1075.32 190.96L1104.48 190.96L1104.48 195.28L1093.20 196.84L1069.80 280.48L1061.16 280.48L1039.80 211.96L1019.16 280.48ZM1132.32 281.92L1132.32 281.92Q1117.80 281.92 1109.04 273.04L1109.04 273.04Q1099.80 263.80 1099.80 247.84L1099.80 247.84Q1099.80 232.36 1109.88 222.76L1109.88 222.76Q1119.12 213.88 1132.44 213.88L1132.44 213.88Q1144.56 213.88 1151.76 221.32L1151.76 221.32Q1158.84 228.64 1158.84 240.16L1158.84 240.16Q1158.84 244.72 1158.00 247.60L1158.00 247.60L1116.48 247.60Q1116.84 260.80 1122.96 267.64L1122.96 267.64Q1128.48 274 1137.72 274L1137.72 274Q1148.88 274 1155.72 264.76L1155.72 264.76L1158.12 266.44Q1154.52 273.88 1147.86 277.90Q1141.20 281.92 1132.32 281.92ZM1116.48 243.16L1116.48 243.16L1137.00 243.16Q1140.96 243.16 1142.52 241L1142.52 241Q1143.84 239.08 1143.84 234.28L1143.84 234.28Q1143.84 227.08 1140.36 222.70Q1136.88 218.32 1131.36 218.32L1131.36 218.32Q1125.24 218.32 1121.40 224.20L1121.40 224.20Q1116.96 230.68 1116.48 243.16ZM1209.60 281.92L1209.60 281.92Q1197.96 281.92 1190.40 273.04L1190.40 273.04L1188.48 281.44L1166.28 280L1166.28 276.28L1175.04 275.32Q1175.28 261.40 1175.28 251.80L1175.28 251.80L1175.28 191.08L1165.56 190.24L1165.56 186.88L1189.32 181.72L1191.12 182.80L1190.64 201.88L1190.64 223Q1199.28 213.88 1210.92 213.88L1210.92 213.88Q1222.32 213.88 1229.52 222.64L1229.52 222.64Q1236.96 231.76 1236.96 247.48L1236.96 247.48Q1236.96 262.48 1229.34 272.20Q1221.72 281.92 1209.60 281.92ZM1203.36 274.24L1203.36 274.24Q1220.16 274.24 1220.16 247.60L1220.16 247.60Q1220.16 234.40 1215.60 227.56L1215.60 227.56Q1211.28 221.32 1203.84 221.32L1203.84 221.32Q1196.88 221.32 1190.88 226.60L1190.88 226.60L1190.88 269.08Q1196.52 274.24 1203.36 274.24Z"/></svg>