<svg xmlns="http://www.w3.org/2000/svg" width="1216.8000000000002" height="316"><path d="M69.24 149.36L69.24 149.36Q68.16 149.36 67.32 148.64Q66.48 147.92 66.48 146.96L66.48 146.96Q66.48 146.24 66.60 144.80L66.60 144.80Q67.44 131.84 67.68 118.76L67.68 118.76L67.68 103.40L34.20 103.40L34.20 106.28Q34.32 107.24 34.32 108.56L34.32 108.56Q34.56 110.60 34.68 111.44L34.68 111.44Q34.32 112.64 32.28 113.60L32.28 113.60Q30.12 114.68 27.84 114.68L27.84 114.68Q27 114.68 26.46 113.96Q25.92 113.24 25.92 112.28L25.92 112.28Q26.52 105.68 26.76 94.64L26.76 94.64L26.76 84.56Q26.76 69.44 25.20 59.96L25.20 59.96L35.04 64.64L67.68 64.64L67.68 63.32Q67.68 48.20 66.12 38.72L66.12 38.72Q75.48 41.36 77.64 42.80L77.64 42.80Q79.32 44 77.52 45.20L77.52 45.20L75.48 46.52L75.48 64.64L107.88 64.64L109.80 62.12Q110.04 61.76 110.64 61.16L110.64 61.16Q111.84 59.60 112.56 59.60L112.56 59.60Q113.76 59.60 117.72 62.78Q121.68 65.96 121.68 67.28L121.68 67.28Q120.48 68.96 116.76 69.68L116.76 69.68L116.76 83.48Q117 97.64 117.72 110.24L117.72 110.24Q116.88 111.32 114.48 112.34Q112.08 113.36 110.28 113.36L110.28 113.36Q108.48 113.36 108.48 110.96L108.48 110.96Q108.60 110.12 108.72 108.68L108.72 108.68Q108.84 107.60 108.96 106.76L108.96 106.76L108.96 103.40L75.48 103.40L75.48 117.68Q75.72 132.32 76.44 145.52L76.44 145.52Q75.72 146.96 73.50 148.16Q71.28 149.36 69.24 149.36ZM34.20 68.12L34.20 99.80L67.68 99.80L67.68 68.12L34.20 68.12ZM75.48 68.12L75.48 99.80L108.96 99.80L108.96 68.12L75.48 68.12ZM237.72 149.48L237.72 149.48Q210 139.76 192.24 120.68L192.24 120.68Q172.08 139.52 140.40 149.12L140.40 149.12L139.56 147.32Q169.92 135.56 187.92 115.76L187.92 115.76Q175.32 100.16 169.08 79.28L169.08 79.28Q163.80 89.36 160.32 94.76L160.32 94.76Q161.64 96.80 159.84 98.48L159.84 98.48L152.40 90.08Q161.52 82.76 168.24 75.44L168.24 75.44L169.92 68.60L174.96 70.52L170.52 76.28Q177.24 96.20 191.88 111.20L191.88 111.20Q207.48 92.12 213.60 65.60L213.60 65.60L159.84 65.60Q151.32 65.72 141.84 67.28L141.84 67.28L138.84 61.28Q145.44 62 154.80 62.24L154.80 62.24L188.16 62.24Q188.16 48.20 186.72 38.84L186.72 38.84Q195.96 41.36 198.12 42.80L198.12 42.80Q199.80 44 198 45.08L198 45.08L195.96 46.40L195.96 62.24L228 62.24L230.64 58.40Q231 58.04 231.48 57.20L231.48 57.20Q233.52 54.44 234.24 54.44L234.24 54.44Q235.44 54.44 240.06 58.46Q244.68 62.48 244.68 63.80L244.68 63.80Q244.20 65.60 241.68 65.60L241.68 65.60L223.08 65.60Q215.28 96.20 196.80 116L196.80 116Q216.84 133.76 246.12 141.68L246.12 141.68L245.76 143Q239.88 143.36 237.72 149.48ZM267.96 149.24L267.96 149.24Q267 149.24 266.16 148.52Q265.32 147.80 265.32 146.84L265.32 146.84Q266.40 131.36 266.64 115.64L266.64 115.64L266.64 68.84Q266.64 53.72 265.08 44.24L265.08 44.24L274.68 48.68L348.84 48.68L350.52 46.28Q350.76 46.04 351.12 45.56L351.12 45.56Q352.44 43.76 353.16 43.76L353.16 43.76Q354.36 43.76 358.38 46.94Q362.40 50.12 362.40 51.44L362.40 51.44Q360.96 53.12 357.36 53.84L357.36 53.84L357.36 137.72Q357.36 143 355.20 145.40L355.20 145.40Q352.20 148.40 343.92 149.24L343.92 149.24Q343.08 145.28 340.80 144.08L340.80 144.08Q336.96 141.80 328.32 140.84L328.32 140.84L328.32 138.92Q337.44 139.52 346.56 140.12L346.56 140.12Q348.48 140.12 349.26 139.40Q350.04 138.68 350.04 137L350.04 137L350.04 52.28L333.48 52.28Q333.48 52.40 333.48 52.76L333.48 52.76Q332.76 76.16 330.72 88.16L330.72 88.16Q338.64 97.40 341.64 105.68L341.64 105.68Q344.04 112.64 342.36 116L342.36 116Q340.68 119.24 336.96 116.36L336.96 116.36Q335.40 108.44 329.04 97.64L329.04 97.64Q323.16 122.72 308.04 138.92L308.04 138.92L306.24 137Q319.92 118.28 323.88 89.60L323.88 89.60Q317.40 80.12 308.76 70.76L308.76 70.76L310.44 69.80Q317.52 74.96 324.84 81.80L324.84 81.80Q325.68 71.72 325.92 52.64L325.92 52.64Q325.92 52.40 325.92 52.28L325.92 52.28L303.12 52.28Q302.40 76.76 300 90.32L300 90.32Q306.36 98.60 308.52 105.80L308.52 105.80Q310.32 112.04 308.58 114.92Q306.84 117.80 303.60 115.04L303.60 115.04Q302.16 107.96 297.96 100.04L297.96 100.04Q292.08 122.48 278.88 137.60L278.88 137.60L277.08 135.68Q288.96 118.16 293.16 91.88L293.16 91.88Q286.56 81.56 278.28 72.20L278.28 72.20L279.84 71.24Q288.24 77.60 294.24 83.72L294.24 83.72Q295.56 71.72 295.80 52.28L295.80 52.28L273.84 52.28L273.84 117.32Q274.08 132.20 274.80 145.52L274.80 145.52Q273.96 146.96 272.28 148.04L272.28 148.04Q270.24 149.24 267.96 149.24ZM422.64 149.36L422.64 149.36Q421.80 145.16 419.64 143.96L419.64 143.96Q416.52 141.80 408.24 140.84L408.24 140.84L408.24 138.92Q416.76 139.40 425.16 140L425.16 140Q426.84 140 427.44 139.40Q428.04 138.80 428.04 137.36L428.04 137.36L428.04 107.60L399.96 107.60Q391.44 107.72 381.96 109.28L381.96 109.28L378.84 103.28Q385.44 104 394.80 104.24L394.80 104.24L428.04 104.24Q428.04 94.76 427.08 89.12L427.08 89.12L435.48 90.56Q442.32 85.52 449.28 77.72L449.28 77.72L420.72 77.72Q412.20 77.84 402.72 79.40L402.72 79.40L399.48 73.28Q406.08 74 415.44 74.24L415.44 74.24L450.72 74.24L453.12 71.12Q453.36 70.76 453.96 70.04L453.96 70.04Q455.64 68 456.36 68L456.36 68Q457.44 68 461.28 72.02Q465.12 76.04 465.12 77.36L465.12 77.36Q464.16 78.44 460.44 78.68L460.44 78.68Q449.04 86.60 438.96 90.92L438.96 90.92L439.68 91.04Q439.32 93.44 435.84 94.16L435.84 94.16L435.84 104.24L468.48 104.24L471.12 100.52Q471.48 100.04 472.08 99.20L472.08 99.20Q473.88 96.68 474.60 96.68L474.60 96.68Q475.80 96.68 480.18 100.52Q484.56 104.36 484.56 105.68L484.56 105.68Q484.08 107.60 481.56 107.60L481.56 107.60L435.84 107.60L435.84 137.96Q435.84 143.36 433.56 145.64L433.56 145.64Q430.80 148.64 422.64 149.36ZM385.26 77.36Q382.56 77.48 381.48 75.44L381.48 75.44Q380.40 73.76 381.36 71.84L381.36 71.84Q382.08 70.04 384 68.72L384 68.72Q387.36 66.20 389.64 60.92L389.64 60.92Q392.16 55.28 391.92 49.40L391.92 49.40L393.84 49.40Q394.92 53.36 395.28 56.72L395.28 56.72L428.04 56.72Q428.04 45.80 426.96 38.48L426.96 38.48Q435.96 41 438 42.56L438 42.56Q439.68 43.64 437.88 44.84L437.88 44.84L435.84 46.16L435.84 56.72L470.88 56.72L473.16 53.84Q473.40 53.60 473.76 53.12L473.76 53.12Q475.44 50.96 476.28 50.96L476.28 50.96Q477.36 50.96 481.08 55.10Q484.80 59.24 484.80 60.56L484.80 60.56Q483.84 61.40 480.24 61.76L480.24 61.76Q473.76 68.24 466.08 72.68L466.08 72.68L464.76 71.84Q467.04 67.88 470.76 60.32L470.76 60.32L395.40 60.32Q395.40 70.52 389.88 75.32L389.88 75.32Q387.96 77.24 385.26 77.36ZM566.88 149.12L566.88 149.12Q565.68 149.12 564.84 148.40Q564 147.68 564 146.72L564 146.72Q565.08 131.24 565.32 115.52L565.32 115.52L565.32 86L554.88 86Q546.36 86.12 536.88 87.68L536.88 87.68L533.76 81.44Q540.36 82.16 549.72 82.40L549.72 82.40L565.32 82.40L565.32 63.68Q565.32 48.56 563.76 39.08L563.76 39.08Q573 41.72 575.16 43.16L575.16 43.16Q576.72 44.36 574.92 45.56L574.92 45.56L572.88 46.88L572.88 82.40L589.92 82.40L592.32 78.80Q592.56 78.44 592.92 77.84L592.92 77.84Q594.84 75.20 595.68 75.20L595.68 75.20Q596.88 75.20 601.14 78.98Q605.40 82.76 605.40 84.08L605.40 84.08Q605.04 86 602.40 86L602.40 86L572.88 86L572.88 117.08Q573.12 131.96 573.84 145.28L573.84 145.28Q573.12 146.72 571.02 147.92Q568.92 149.12 566.88 149.12ZM518.88 142.28L518.88 142.28L513.72 132.68Q516.36 131.24 517.08 130.40Q517.80 129.56 517.80 127.88L517.80 127.88L517.80 75.44L512.04 75.44Q507.24 75.56 501.96 77.12L501.96 77.12L498.72 70.88Q504.12 71.60 511.92 71.84L511.92 71.84L518.04 71.84L519.72 69.44Q519.96 69.08 520.44 68.48L520.44 68.48Q521.52 66.92 522.24 66.92L522.24 66.92Q523.32 66.92 526.32 69.92Q529.32 72.92 529.32 74.24L529.32 74.24Q528.36 75.80 525.12 76.52L525.12 76.52L525.12 128Q529.44 125.72 539.64 119.96L539.64 119.96Q543.36 117.80 545.16 116.84L545.16 116.84L546 118.52Q544.56 119.72 540.60 123.08L540.60 123.08Q528.96 132.92 521.76 138.68L521.76 138.68Q521.04 141.20 518.88 142.28ZM531.60 63.86Q529.56 65.72 526.44 63.68L526.44 63.68Q524.88 58.52 519.96 51.68L519.96 51.68Q515.64 45.56 510.84 40.76L510.84 40.76L512.16 39.80Q521.64 43.64 527.16 49.04L527.16 49.04Q531.72 53.48 532.80 58.04L532.80 58.04Q533.64 62 531.60 63.86ZM683.16 147.08Q681.12 149.60 676.44 147.92L676.44 147.92Q672.36 146.36 667.80 142.40L667.80 142.40Q658.32 134 651.48 121.40L651.48 121.40Q638.16 136.28 619.80 146.12L619.80 146.12L618.60 144.20Q636.60 131.96 648.60 115.64L648.60 115.64Q641.28 99.44 637.92 78.20L637.92 78.20L619.32 80.96L618 77.60L637.32 74.72Q635.04 56.72 635.04 39.20L635.04 39.20Q643.44 39.80 645.48 40.76L645.48 40.76Q647.04 41.48 645.12 42.68L645.12 42.68L643.08 44Q642.84 59.72 644.76 73.64L644.76 73.64L670.56 69.80L672.36 66.32Q672.60 65.84 673.08 65.12L673.08 65.12Q674.40 62.84 675.12 62.84L675.12 62.84Q676.32 62.84 680.28 65.36L680.28 65.36Q684.36 68.12 684.36 69.32L684.36 69.32Q684.36 71.48 681.84 71.72L681.84 71.72L645.24 77.12Q647.88 94.40 653.52 108.32L653.52 108.32Q656.04 104.36 657.72 101.12L657.72 101.12Q660.48 95.96 663 89.24L663 89.24Q665.28 82.64 666.24 77.60L666.24 77.60Q674.28 80.96 676.20 82.52L676.20 82.52Q677.76 83.72 675.72 84.20L675.72 84.20L673.44 84.68Q666.60 101.96 656.76 115.04L656.76 115.04Q663.36 127.40 672.12 134.48L672.12 134.48Q673.56 135.80 674.40 135.74Q675.24 135.68 676.08 134L676.08 134Q677.64 130.28 681.12 120.56L681.12 120.56L682.56 120.80L680.40 139.04Q682.92 142.64 683.52 144.44L683.52 144.44Q684.12 146.12 683.16 147.08L683.16 147.08ZM706.80 149.36L706.80 149.36Q705.96 145.16 704.16 143.48L704.16 143.48Q701.40 141.44 693.72 140.24L693.72 140.24L693.72 138.44Q701.28 138.92 708.72 139.52L708.72 139.52Q711.72 139.52 711.72 136.76L711.72 136.76L711.72 89.24L711.72 65.60Q711.72 50.48 710.16 41L710.16 41Q719.40 43.64 721.56 45.08L721.56 45.08Q723.12 46.28 721.32 47.36L721.32 47.36L719.28 48.56L719.28 137.48Q719.28 143 717.24 145.40L717.24 145.40Q714.48 148.52 706.80 149.36ZM690.60 125L690.60 125Q689.52 125 688.80 124.28Q688.08 123.56 688.08 122.60L688.08 122.60Q688.80 111.44 689.04 100.04L689.04 100.04L689.04 87.44L689.04 73.88Q689.04 58.76 687.48 49.28L687.48 49.28Q696.48 51.80 698.64 53.24L698.64 53.24Q700.20 54.44 698.40 55.52L698.40 55.52L696.36 56.84L696.36 93.44Q696.60 108.32 697.32 121.64L697.32 121.64Q696.60 122.96 694.62 123.98Q692.64 125 690.60 125ZM669.12 60.80Q667.20 62.60 664.20 61.04L664.20 61.04Q662.64 57.08 658.44 52.64L658.44 52.64Q654.48 48.56 650.04 45.92L650.04 45.92L651 44.84Q659.64 45.92 664.80 49.40L664.80 49.40Q669.12 52.16 670.20 55.76L670.20 55.76Q671.04 59 669.12 60.80Z"/><path d="M70.32 280L32.04 280L32.04 275.68L45.96 274.36Q46.20 262.96 46.20 239.56L46.20 239.56L46.20 232.96Q46.20 209.32 45.96 197.80L45.96 197.80L24 197.80L20.64 215.32L14.64 215.32L15.60 192.52L86.64 192.52L87.84 215.32L81.84 215.32L78.48 197.80L56.52 197.80Q56.16 209.20 56.16 232.96L56.16 232.96L56.16 239.56Q56.16 262.84 56.52 274.36L56.52 274.36L70.32 275.68L70.32 280ZM124.20 280L94.80 280L94.80 276.16L105.12 274.60Q105.36 261.40 105.36 252.64L105.36 252.64L105.36 192.88L94.44 191.92L94.44 188.20L112.80 183.16L114.60 184.24L114.12 202.72L114.12 229.24Q119.40 223.36 125.76 220L125.76 220Q132.36 216.64 138.48 216.64L138.48 216.64Q146.88 216.64 150.84 222.04L150.84 222.04Q154.92 227.68 154.92 240.16L154.92 240.16L154.92 252.64Q154.92 261.40 155.16 274.60L155.16 274.60L164.76 276.16L164.76 280L135.48 280L135.48 276.16L145.68 274.72Q145.92 261.28 145.92 252.64L145.92 252.64L145.92 240.64Q145.92 231.52 143.04 227.68L143.04 227.68Q140.40 224.08 134.40 224.08L134.40 224.08Q124.56 224.08 114.48 233.68L114.48 233.68L114.48 252.64Q114.48 261.28 114.72 274.72L114.72 274.72L124.20 276.16L124.20 280ZM204.00 281.68L204.00 281.68Q191.04 281.68 183.24 273.28L183.24 273.28Q175.08 264.64 175.08 249.52L175.08 249.52Q175.08 234.88 183.84 225.52L183.84 225.52Q192.24 216.64 204.48 216.64L204.48 216.64Q215.04 216.64 221.76 223.24L221.76 223.24Q228.48 229.96 228.48 241.12L228.48 241.12Q228.48 246.04 227.64 248.56L227.64 248.56L184.80 248.44Q184.92 261.28 191.16 268.36L191.16 268.36Q197.04 274.96 207.00 274.96L207.00 274.96Q218.04 274.96 225.84 265.60L225.84 265.60L228.36 267.52Q220.32 281.68 204.00 281.68ZM184.92 243.88L184.92 243.88L213.00 243.88Q216.72 243.88 218.28 242.08L218.28 242.08Q219.48 240.64 219.48 237.40L219.48 237.40Q219.48 230.92 215.16 226.24L215.16 226.24Q210.60 221.44 203.88 221.44L203.88 221.44Q196.80 221.44 191.64 226.96L191.64 226.96Q186.00 233.08 184.92 243.88ZM308.04 280L272.04 280L272.04 275.68L284.52 274.36Q284.88 262.96 284.88 239.56L284.88 239.56L284.88 232.96Q284.88 209.56 284.52 198.04L284.52 198.04L272.04 196.72L272.04 192.52L306.60 192.52Q322.20 192.52 330.48 199.60L330.48 199.60Q338.40 206.32 338.40 218.20Q338.40 230.08 330.12 236.92L330.12 236.92Q320.76 244.60 302.40 244.60L302.40 244.60L294.84 244.60Q294.84 264.28 295.20 274.36L295.20 274.36L308.04 275.68L308.04 280ZM294.84 232.96L294.84 239.80L303.48 239.80Q327.84 239.80 327.84 218.20L327.84 218.20Q327.84 197.44 304.68 197.44L304.68 197.44L295.20 197.44Q294.84 208.96 294.84 232.96L294.84 232.96ZM377.64 280L347.04 280L347.04 276.16L356.88 274.72Q357.24 264.64 357.24 252.64L357.24 252.64L357.24 246.04Q357.24 238.96 356.76 229.12L356.76 229.12Q356.76 228.28 356.76 227.80L356.76 227.80L346.08 226.96L346.08 223.12L363.36 216.76L365.04 217.96L366.24 233.68Q369.48 225.76 374.76 221.20Q380.04 216.64 385.80 216.64L385.80 216.64Q388.80 216.64 391.38 217.84Q393.96 219.04 394.92 220.96L394.92 220.96Q394.92 229.12 388.20 229.12L388.20 229.12Q384.60 229.12 380.52 225.64L380.52 225.64L378.84 224.20Q370.80 229.48 366.36 241.72L366.36 241.72L366.36 252.64Q366.36 261.16 366.60 274.60L366.60 274.60L377.64 276.16L377.64 280ZM429.78 281.68Q417.72 281.68 409.56 273.64L409.56 273.64Q400.32 264.76 400.32 249.34Q400.32 233.92 409.56 224.80L409.56 224.80Q417.84 216.64 429.84 216.64L429.84 216.64Q441.72 216.64 450 224.80L450 224.80Q459.24 233.92 459.24 249.34Q459.24 264.76 450.12 273.64L450.12 273.64Q441.84 281.68 429.78 281.68ZM415.68 269.92Q420.60 276.88 429.78 276.88Q438.96 276.88 444 269.92L444 269.92Q449.16 262.72 449.16 249.40Q449.16 236.08 444.06 228.76Q438.96 221.44 429.84 221.44L429.84 221.44Q420.72 221.44 415.62 228.76Q410.52 236.08 410.52 249.40Q410.52 262.72 415.68 269.92L415.68 269.92ZM466.44 312.76L466.44 312.76Q461.28 312.76 458.28 310.72L458.28 310.72Q455.88 309.04 455.52 306.52L455.52 306.52Q457.08 301.84 462.48 301.84L462.48 301.84Q466.80 301.84 471.36 305.20L471.36 305.20L474.36 307.24Q476.28 305.92 477.48 303.16L477.48 303.16Q479.40 299.32 480.12 290.44L480.12 290.44Q480.72 282.76 480.72 267.40L480.72 267.40L480.72 246.04Q480.72 236.08 480.36 227.68L480.36 227.68L469.68 226.96L469.68 223L488.16 216.76L489.84 217.96L489.48 235L489.48 265.84Q489.48 283.96 488.16 291.52L488.16 291.52Q486.72 300.16 482.16 305.32L482.16 305.32Q478.80 309.16 475.32 310.84L475.32 310.84Q471.48 312.76 466.44 312.76ZM485.04 200.44L485.04 200.44Q481.80 200.44 479.58 198.40Q477.36 196.36 477.36 193.12Q477.36 189.88 479.52 187.84Q481.68 185.80 484.98 185.80Q488.28 185.80 490.44 187.84Q492.60 189.88 492.60 193.12Q492.60 196.36 490.44 198.40Q488.28 200.44 485.04 200.44ZM536.64 281.68L536.64 281.68Q523.68 281.68 515.88 273.28L515.88 273.28Q507.72 264.64 507.72 249.52L507.72 249.52Q507.72 234.88 516.48 225.52L516.48 225.52Q524.88 216.64 537.12 216.64L537.12 216.64Q547.68 216.64 554.40 223.24L554.40 223.24Q561.12 229.96 561.12 241.12L561.12 241.12Q561.12 246.04 560.28 248.56L560.28 248.56L517.44 248.44Q517.56 261.28 523.80 268.36L523.80 268.36Q529.68 274.96 539.64 274.96L539.64 274.96Q550.68 274.96 558.48 265.60L558.48 265.60L561 267.52Q552.96 281.68 536.64 281.68ZM517.56 243.88L517.56 243.88L545.64 243.88Q549.36 243.88 550.92 242.08L550.92 242.08Q552.12 240.64 552.12 237.40L552.12 237.40Q552.12 230.92 547.80 226.24L547.80 226.24Q543.24 221.44 536.52 221.44L536.52 221.44Q529.44 221.44 524.28 226.96L524.28 226.96Q518.64 233.08 517.56 243.88ZM602.40 281.68L602.40 281.68Q589.20 281.68 581.28 272.86Q573.36 264.04 573.36 249.16L573.36 249.16Q573.36 234.40 582.48 225.28L582.48 225.28Q591 216.64 603.24 216.64L603.24 216.64Q611.52 216.64 617.82 221.08Q624.12 225.52 625.80 232.60L625.80 232.60Q625.08 237.04 620.52 237.04L620.52 237.04Q615.84 237.04 614.40 231.88L614.40 231.88L611.76 222.88Q607.44 221.44 603.60 221.44L603.60 221.44Q594.36 221.44 588.72 228.52L588.72 228.52Q582.84 235.84 582.84 248.26Q582.84 260.68 589.08 267.88L589.08 267.88Q595.08 274.96 604.92 274.96L604.92 274.96Q610.68 274.96 615.54 272.38Q620.40 269.80 623.64 265.12L623.64 265.12L626.16 266.32Q619.68 281.68 602.40 281.68ZM658.08 281.68L658.08 281.68Q643.92 281.68 643.92 266.56L643.92 266.56Q643.92 265.24 643.92 262.48L643.92 262.48Q644.04 258.76 644.04 256.12L644.04 256.12L644.04 223.84L632.28 223.84L632.28 219.40L644.52 217.96L647.40 200.20L654 200.20L653.28 218.32L671.28 218.32L671.28 223.84L653.16 223.84L653.16 266.08Q653.16 276.16 660.96 276.16L660.96 276.16Q665.16 276.16 670.08 272.68L670.08 272.68L672.48 275.68Q667.20 281.68 658.08 281.68ZM746.64 280L710.64 280L710.64 275.68L723.12 274.36Q723.48 262.96 723.48 239.56L723.48 239.56L723.48 232.96Q723.48 209.56 723.12 198.04L723.12 198.04L710.64 196.72L710.64 192.52L774.84 192.52L775.80 215.08L769.80 215.08L766.68 197.80L733.80 197.80Q733.44 209.08 733.44 233.08L733.44 233.08L755.28 233.08L756.84 220.12L761.88 220.12L761.88 251.56L756.84 251.56L755.16 237.88L733.44 237.88Q733.44 262.84 733.80 274.36L733.80 274.36L746.64 275.68L746.64 280ZM809.94 281.68Q797.88 281.68 789.72 273.64L789.72 273.64Q780.48 264.76 780.48 249.34Q780.48 233.92 789.72 224.80L789.72 224.80Q798.00 216.64 810.00 216.64L810.00 216.64Q821.88 216.64 830.16 224.80L830.16 224.80Q839.40 233.92 839.40 249.34Q839.40 264.76 830.28 273.64L830.28 273.64Q822.00 281.68 809.94 281.68ZM795.84 269.92Q800.76 276.88 809.94 276.88Q819.12 276.88 824.16 269.92L824.16 269.92Q829.32 262.72 829.32 249.40Q829.32 236.08 824.22 228.76Q819.12 221.44 810.00 221.44L810.00 221.44Q800.88 221.44 795.78 228.76Q790.68 236.08 790.68 249.40Q790.68 262.72 795.84 269.92L795.84 269.92ZM881.88 280L851.28 280L851.28 276.16L861.12 274.72Q861.48 264.64 861.48 252.64L861.48 252.64L861.48 246.04Q861.48 238.96 861.00 229.12L861.00 229.12Q861.00 228.28 861.00 227.80L861.00 227.80L850.32 226.96L850.32 223.12L867.60 216.76L869.28 217.96L870.48 233.68Q873.72 225.76 879.00 221.20Q884.28 216.64 890.04 216.64L890.04 216.64Q893.04 216.64 895.62 217.84Q898.20 219.04 899.16 220.96L899.16 220.96Q899.16 229.12 892.44 229.12L892.44 229.12Q888.84 229.12 884.76 225.64L884.76 225.64L883.08 224.20Q875.04 229.48 870.60 241.72L870.60 241.72L870.60 252.64Q870.60 261.16 870.84 274.60L870.84 274.60L881.88 276.16L881.88 280ZM972.12 280.96L967.56 280.96L944.16 197.92L932.88 196.72L932.88 192.52L966.96 192.52L966.96 196.72L954.60 198.16L971.88 263.20L992.76 198.16L979.56 196.72L979.56 192.52L1013.52 192.52L1013.52 196.72L1000.20 198.28L1020.72 263.68L1038.00 198.40L1025.52 196.72L1025.52 192.52L1055.28 192.52L1055.28 196.72L1043.76 198.28L1021.68 280.96L1017.00 280.96L994.08 210.04L972.12 280.96ZM1082.04 281.68L1082.04 281.68Q1069.08 281.68 1061.28 273.28L1061.28 273.28Q1053.12 264.64 1053.12 249.52L1053.12 249.52Q1053.12 234.88 1061.88 225.52L1061.88 225.52Q1070.28 216.64 1082.52 216.64L1082.52 216.64Q1093.08 216.64 1099.80 223.24L1099.80 223.24Q1106.52 229.96 1106.52 241.12L1106.52 241.12Q1106.52 246.04 1105.68 248.56L1105.68 248.56L1062.84 248.44Q1062.96 261.28 1069.20 268.36L1069.20 268.36Q1075.08 274.96 1085.04 274.96L1085.04 274.96Q1096.08 274.96 1103.88 265.60L1103.88 265.60L1106.40 267.52Q1098.36 281.68 1082.04 281.68ZM1062.96 243.88L1062.96 243.88L1091.04 243.88Q1094.76 243.88 1096.32 242.08L1096.32 242.08Q1097.52 240.64 1097.52 237.40L1097.52 237.40Q1097.52 230.92 1093.20 226.24L1093.20 226.24Q1088.64 221.44 1081.92 221.44L1081.92 221.44Q1074.84 221.44 1069.68 226.96L1069.68 226.96Q1064.04 233.08 1062.96 243.88ZM1154.28 281.68L1154.28 281.68Q1143.36 281.68 1135.56 272.20L1135.56 272.20L1134.60 281.20L1116.12 280L1116.12 276.16L1126.44 274.60Q1126.68 261.40 1126.68 252.64L1126.68 252.64L1126.68 193L1115.76 191.92L1115.76 188.20L1134.12 183.16L1135.92 184.24L1135.44 202.72L1135.44 226.60Q1144.44 216.64 1155.84 216.64L1155.84 216.64Q1166.76 216.64 1173.72 225.16L1173.72 225.16Q1180.80 233.92 1180.80 248.44L1180.80 248.44Q1180.80 263.20 1173.42 272.44Q1166.04 281.68 1154.28 281.68ZM1152.48 275.56L1152.48 275.56Q1160.52 275.56 1165.56 269.32L1165.56 269.32Q1171.08 262.36 1171.08 249.16L1171.08 249.16Q1171.08 236.44 1166.04 229.36L1166.04 229.36Q1161.24 222.64 1153.08 222.64L1153.08 222.64Q1144.56 222.64 1135.80 230.68L1135.80 230.68L1135.80 267.88Q1143.60 275.56 1152.48 275.56Z"/></svg>